<?xml version="1.0" standalone="no"?>
<!-- Generator: Adobe Fireworks 10, Export SVG Extension by Aaron Beall (http://fireworks.abeall.com) . Version: 0.6.1  -->
<!DOCTYPE svg PUBLIC "-//W3C//DTD SVG 1.1//EN" "http://www.w3.org/Graphics/SVG/1.1/DTD/svg11.dtd">
<svg id="Untitled-Page%201" viewBox="0 0 256 256" style="background-color:#ffffff00" version="1.1"
	xmlns="http://www.w3.org/2000/svg" xmlns:xlink="http://www.w3.org/1999/xlink" xml:space="preserve"
	x="0px" y="0px" width="256px" height="256px"
>
	<g id="Layer%201">
		<path d="M 253.264 117.952 L 133.264 13.952 C 130.256 11.344 125.792 11.344 122.784 13.952 L 80 51.008 L 80 36 C 80 27.168 72.832 20 64 20 C 55.168 20 48 27.168 48 36 L 48 78.736 L 2.752 117.952 C -0.576 120.848 -0.944 125.904 1.952 129.248 C 4.864 132.576 9.904 132.928 13.248 130.048 L 128 30.592 L 242.736 130.048 C 244.272 131.36 246.112 132 247.984 132 C 250.24 132 252.432 131.056 254.016 129.248 C 256.96 125.904 256.576 120.88 253.264 117.952 Z" fill="#dcce91"/>
		<path d="M 161.0586 178.5358 C 161.6869 180.6488 161.9975 182.9044 162 185.3036 C 162 192.6457 159.6177 198.9687 154.8547 204.272 C 150.0921 209.5753 143.9048 212.8508 136.2919 214.0984 L 136.2919 226.6962 C 136.2919 227.3694 136.0776 227.9216 135.6472 228.353 C 135.2169 228.7844 134.6661 229 133.9948 229 L 124.3002 229 C 123.678 229 123.1397 228.7731 122.6848 228.3164 C 122.2303 227.8601 122.0027 227.3207 122.0027 226.6959 L 122.0027 214.0982 C 118.843 213.6665 115.7919 212.9229 112.8473 211.8685 C 109.9026 210.8123 107.4736 209.7449 105.5586 208.6655 C 103.6434 207.5843 101.872 206.4341 100.2447 205.2097 C 98.618 203.9835 97.5048 203.0851 96.9052 202.508 C 96.3071 201.9331 95.8884 201.5002 95.6487 201.212 C 94.835 200.2041 94.7865 199.2206 95.5048 198.2609 L 102.9012 188.5434 C 103.2359 188.0625 103.7867 187.7743 104.5528 187.6785 C 105.2701 187.5819 105.8448 187.7983 106.2759 188.3248 L 106.4195 188.4687 C 111.8289 193.2196 117.6451 196.2191 123.8684 197.4684 C 125.639 197.8522 127.4116 198.043 129.1812 198.043 C 133.0582 198.043 136.4702 197.0113 139.4138 194.947 C 142.3587 192.885 143.8308 189.9581 143.8308 186.1667 C 143.8308 184.8223 143.4709 183.5504 142.7523 182.351 C 142.0338 181.1516 141.2322 180.1438 140.3467 179.3276 C 139.4604 178.5114 138.0607 177.6113 136.1465 176.6284 C 134.2305 175.6445 132.6513 174.8768 131.4058 174.3246 C 130.1613 173.7724 128.2461 172.9923 125.6614 171.9845 C 123.7937 171.2182 122.3218 170.6176 121.2446 170.1862 C 120.1674 169.7533 118.6949 169.1181 116.8279 168.2777 C 114.9615 167.4398 113.4658 166.6935 112.3402 166.048 C 111.215 165.4005 109.8626 164.548 108.2824 163.4916 C 106.7032 162.4361 105.4225 161.4159 104.4409 160.4328 C 103.4598 159.4495 102.4183 158.2735 101.3174 156.9059 C 100.2166 155.5378 99.3665 154.1464 98.7684 152.7299 C 98.1698 151.3144 97.6668 149.7186 97.2603 147.9422 C 96.8534 146.1674 96.6492 144.2958 96.6492 142.3283 C 96.6492 135.7048 98.9955 129.8987 103.6864 124.9073 C 108.3777 119.9162 114.4813 116.7006 121.9974 115.2614 L 121.9974 102.3036 C 121.9974 101.6795 122.2248 101.1399 122.6795 100.6838 C 123.1342 100.2277 123.6727 100 124.2949 100 L 133.9896 100 C 134.6608 100 135.2116 100.2166 135.6422 100.6478 C 136.0718 101.0799 136.2868 101.6321 136.2868 102.3036 L 136.2868 114.9739 C 139.0162 115.2616 141.6618 115.8131 144.2216 116.6298 C 146.783 117.4452 148.866 118.2495 150.4704 119.0407 C 152.073 119.8327 153.5928 120.7326 155.0287 121.7402 C 156.4661 122.7485 157.3999 123.4441 157.8295 123.8284 C 158.2634 124.2127 158.621 124.5483 158.9087 124.8362 C 159.7231 125.7006 159.8418 126.6125 159.2676 127.5719 L 153.4502 138.0822 C 153.0664 138.8013 152.5154 139.1859 151.7976 139.2338 C 151.1273 139.3772 150.4827 139.2095 149.8595 138.7297 C 149.7174 138.5855 149.3685 138.2978 148.818 137.8656 C 148.2669 137.4337 147.3338 136.7983 146.0172 135.9582 C 144.7003 135.1188 143.3006 134.3508 141.8152 133.6544 C 140.3311 132.9579 138.5476 132.3357 136.4667 131.7832 C 134.3857 131.2308 132.3369 130.9552 130.3273 130.9552 C 125.7793 130.9552 122.0688 131.9872 119.1964 134.0502 C 116.3241 136.1133 114.8885 138.7776 114.8885 142.0403 C 114.8885 143.2882 115.0923 144.4402 115.4984 145.4962 C 115.9056 146.5519 116.6116 147.5479 117.6171 148.4836 C 118.6227 149.4193 119.5678 150.211 120.4534 150.8585 C 121.3392 151.506 122.6797 152.2503 124.4743 153.0894 C 126.2695 153.9298 127.7172 154.5773 128.8181 155.0335 C 129.9202 155.4891 131.5952 156.1492 133.8449 157.0125 C 136.3824 157.9724 138.3223 158.7283 139.6633 159.2798 C 141.0026 159.832 142.822 160.6716 145.1183 161.7999 C 147.4166 162.9285 149.2242 163.9482 150.54 164.8602 C 151.8567 165.7714 153.3416 166.9701 154.9922 168.4585 C 156.6449 169.9476 157.9125 171.4701 158.7975 173.0308 C 159.6831 174.5901 160.4371 176.4262 161.0586 178.5358 ZM 138.128 71.648 C 135.2 69.232 131.6 68 128 68 C 124.4 68 120.8 69.216 117.856 71.648 L 37.856 137.232 C 34.144 140.272 32 144.8 32 149.616 L 32 228 C 32 236.832 39.168 244 48 244 L 96 244 L 160 244 L 208 244 C 216.816 244 224 236.832 224 228 L 224 149.616 C 224 144.784 221.84 140.272 218.128 137.248 L 138.128 71.648 Z" fill="#dcce91"/>
	</g>
</svg>