<?xml version="1.0" standalone="no"?>
<!-- Generator: Adobe Fireworks 10, Export SVG Extension by Aaron Beall (http://fireworks.abeall.com) . Version: 0.6.1  -->
<!DOCTYPE svg PUBLIC "-//W3C//DTD SVG 1.1//EN" "http://www.w3.org/Graphics/SVG/1.1/DTD/svg11.dtd">
<svg id="Untitled-Page%201" viewBox="0 0 510 510" style="background-color:#ffffff00" version="1.1"
	xmlns="http://www.w3.org/2000/svg" xmlns:xlink="http://www.w3.org/1999/xlink" xml:space="preserve"
	x="0px" y="0px" width="510px" height="510px"
>
	<g id="Layer%201">
		<path id="tick7" d="M 459 255 C 459 367.2 367.2 459 255 459 C 142.8 459 51 367.2 51 255 C 51 142.8 142.8 51 255 51 C 275.4 51 293.25 53.55 311.1 58.65 L 351.901 17.85 C 321.3 7.65 288.15 0 255 0 C 114.75 0 0 114.75 0 255 C 0 395.25 114.75 510 255 510 C 395.25 510 510 395.25 510 255 L 459 255 L 459 255 ZM 150.45 206.55 L 114.75 242.25 L 229.5 357 L 484.5 102 L 448.8 66.3 L 229.5 285.6 L 150.45 206.55 L 150.45 206.55 Z" fill="#dcce91"/>
	</g>
</svg>