<?xml version="1.0" standalone="no"?>
<!-- Generator: Adobe Fireworks 10, Export SVG Extension by Aaron Beall (http://fireworks.abeall.com) . Version: 0.6.1  -->
<!DOCTYPE svg PUBLIC "-//W3C//DTD SVG 1.1//EN" "http://www.w3.org/Graphics/SVG/1.1/DTD/svg11.dtd">
<svg id="Untitled-Page%201" viewBox="0 0 612 612" style="background-color:#ffffff00" version="1.1"
	xmlns="http://www.w3.org/2000/svg" xmlns:xlink="http://www.w3.org/1999/xlink" xml:space="preserve"
	x="0px" y="0px" width="612px" height="612px"
>
	<g id="Layer%201">
		<g id="fm-icon-refinance">
			<g id="refresh52">
				<path d="M 323.128 56.236 L 328.774 46.666 L 368.944 6.497 C 271.247 -13.921 165.482 13.786 89.65 89.646 C -16.421 195.717 -28.355 360.261 53.875 479.49 L 10.98 522.386 L 148.68 542.053 L 129.013 404.353 L 94.045 439.32 C 33.067 342.596 44.723 213.242 128.985 128.98 C 182.229 75.737 253.471 51.479 323.128 56.236 L 323.128 56.236 L 323.128 56.236 Z" fill="#ffffff"/>
				<path d="M 581.392 69.979 L 443.692 50.312 L 463.36 188.012 L 501.61 149.762 C 580.336 248.072 574.131 391.948 483.027 483.079 C 421.911 544.196 337.038 567.118 258.145 551.818 L 212.495 597.467 C 318.149 631.266 438.545 606.258 522.39 522.413 C 635.248 409.555 641.536 230.434 541.195 110.204 L 581.392 69.979 L 581.392 69.979 L 581.392 69.979 Z" fill="#ffffff"/>
			</g>
			<path id="usd" d="M 406.1056 349.1956 C 404.1948 342.703 401.8764 337.0524 399.1537 332.2538 C 396.4325 327.4506 392.535 322.7652 387.4537 318.1823 C 382.3786 313.6018 377.8131 309.9128 373.7649 307.1085 C 369.719 304.3018 364.1613 301.1638 357.095 297.6905 C 350.0349 294.218 344.4409 291.634 340.3231 289.9347 C 336.1999 288.2376 330.2354 285.9113 322.4337 282.9572 C 315.5166 280.3002 310.3665 278.2687 306.9779 276.8665 C 303.5932 275.4628 299.1421 273.4701 293.6223 270.8838 C 288.1049 268.3014 283.9832 266.0107 281.2597 264.018 C 278.5369 262.0253 275.6309 259.5888 272.5393 256.7092 C 269.4476 253.8295 267.277 250.7644 266.0251 247.5154 C 264.7762 244.2657 264.1498 240.7203 264.1498 236.88 C 264.1498 226.8389 268.5638 218.6392 277.3948 212.2902 C 286.2266 205.9412 297.6349 202.7652 311.6184 202.7652 C 317.797 202.7652 324.0963 203.6133 330.4945 205.3135 C 336.8927 207.0136 342.3762 208.9287 346.9394 211.072 C 351.5064 213.2152 355.8098 215.5788 359.8588 218.162 C 363.907 220.7475 366.7759 222.703 368.4702 224.0322 C 370.1629 225.3622 371.2354 226.2476 371.6724 226.6915 C 373.5886 228.1682 375.5705 228.6842 377.6313 228.2427 C 379.8383 228.0952 381.5326 226.9118 382.7127 224.6988 L 400.599 192.3532 C 402.3644 189.4006 401.9994 186.594 399.4955 183.9339 C 398.6108 183.0478 397.5112 182.015 396.1772 180.8324 C 394.8564 179.6498 391.9852 177.5089 387.5659 174.4058 C 383.1511 171.305 378.4781 168.5356 373.5507 166.0982 C 368.6179 163.6632 362.2134 161.1879 354.3382 158.6784 C 346.4677 156.165 338.3334 154.468 329.9416 153.5826 L 329.9416 114.5893 C 329.9416 112.5229 329.2804 110.8235 327.9596 109.4935 C 326.6358 108.1666 324.9423 107.5 322.8783 107.5 L 293.071 107.5 C 291.1579 107.5 289.5023 108.2007 288.1041 109.6044 C 286.706 111.0082 286.007 112.6687 286.007 114.5893 L 286.007 154.4672 C 262.8979 158.8964 244.1316 168.7924 229.7073 184.1527 C 215.2846 199.5139 208.0706 217.3822 208.0706 237.7661 C 208.0706 243.821 208.6985 249.5811 209.9497 255.0431 C 211.1993 260.5099 212.7459 265.421 214.5863 269.7773 C 216.4252 274.1367 219.039 278.4185 222.4237 282.6289 C 225.8084 286.8378 229.0106 290.4569 232.0272 293.4832 C 235.0454 296.5087 238.983 299.6483 243.8385 302.8965 C 248.6971 306.1478 252.8551 308.7714 256.3148 310.7641 C 259.7753 312.7505 264.3741 315.0474 270.1127 317.626 C 275.8528 320.2123 280.3805 322.167 283.6925 323.4993 C 287.0045 324.827 291.5298 326.6754 297.2723 329.0335 C 305.2194 332.1351 311.108 334.5359 314.9343 336.2353 C 318.7636 337.9347 323.6192 340.2975 329.5101 343.3254 C 335.3956 346.3501 339.699 349.1203 342.4241 351.6321 C 345.1469 354.144 347.6114 357.2455 349.8206 360.9368 C 352.0299 364.6281 353.1365 368.5421 353.1365 372.6796 C 353.1365 384.3479 348.6104 393.3553 339.5559 399.7012 C 330.5053 406.0541 320.0148 409.2294 308.0945 409.2294 C 302.6536 409.2294 297.2035 408.642 291.7595 407.4609 C 272.6251 403.616 254.7427 394.385 238.1107 379.7642 L 237.6692 379.3211 C 236.3437 377.7009 234.5768 377.0351 232.3713 377.3323 C 230.0159 377.6272 228.3224 378.5141 227.2931 379.9939 L 204.5521 409.8998 C 202.3436 412.8531 202.4928 415.8802 204.9944 418.9818 C 205.7314 419.8687 207.0189 421.201 208.8578 422.9703 C 210.7013 424.7465 214.1239 427.5113 219.1256 431.2848 C 224.1288 435.0529 229.5751 438.5929 235.4637 441.9203 C 241.3516 445.2422 248.82 448.5269 257.8738 451.7774 C 266.9275 455.0225 276.3083 457.3109 286.0232 458.6393 L 286.0232 497.4092 C 286.0232 499.3321 286.723 500.9919 288.1204 502.3963 C 289.5192 503.8017 291.1741 504.5 293.0872 504.5 L 322.8946 504.5 C 324.9585 504.5 326.652 503.8365 327.9751 502.5089 C 329.2982 501.1812 329.9571 499.4818 329.9571 497.4099 L 329.9571 458.6401 C 353.3639 454.8006 372.3877 444.72 387.0307 428.399 C 401.6754 412.0779 409 392.6189 409 370.0234 C 408.9922 362.6401 408.0373 355.6982 406.1056 349.1956 L 406.1056 349.1956 L 406.1056 349.1956 Z" fill="#ffffff"/>
		</g>
	</g>
</svg>