<?xml version="1.0" standalone="no"?>
<!-- Generator: Adobe Fireworks 10, Export SVG Extension by Aaron Beall (http://fireworks.abeall.com) . Version: 0.6.1  -->
<!DOCTYPE svg PUBLIC "-//W3C//DTD SVG 1.1//EN" "http://www.w3.org/Graphics/SVG/1.1/DTD/svg11.dtd">
<svg id="Untitled-Page%201" viewBox="0 0 510 510" style="background-color:#ffffff00" version="1.1"
	xmlns="http://www.w3.org/2000/svg" xmlns:xlink="http://www.w3.org/1999/xlink" xml:space="preserve"
	x="0px" y="0px" width="510px" height="510px"
>
	<g id="Layer%201">
		<path d="M 350.92 18.83 L 351.901 17.85 C 343.0497 14.8997 333.9861 12.1602 324.77 9.76 C 302.575 3.4035 279.1655 0 255 0 C 230.8522 0 207.4603 3.4021 185.28 9.75 C 176.047 12.1533 166.966 14.8944 158.099 17.85 L 159.08 18.83 C 66.0048 56.9277 0 148.6306 0 255 C 0 395.25 114.75 510 255 510 C 395.25 510 510 395.25 510 255 C 510 148.6307 443.9951 56.9278 350.92 18.83 ZM 459 255 C 459 367.2 367.2 459 255 459 C 142.8 459 51 367.2 51 255 C 51 142.8 142.8 51 255 51 C 367.2 51 459 142.8 459 255 Z" fill="#dcce91"/>
		<path id="close47" d="M 400 140.7 L 364.3 105 L 251.5 217.8 L 148.7 115 L 113 150.7 L 215.8 253.5 L 113 356.3 L 148.7 392 L 251.5 289.2 L 364.3 402 L 400 366.3 L 287.2 253.5 L 400 140.7 Z" fill="#dcce91"/>
	</g>
</svg>