<?xml version="1.0" standalone="no"?>
<!-- Generator: Adobe Fireworks 10, Export SVG Extension by Aaron Beall (http://fireworks.abeall.com) . Version: 0.6.1  -->
<!DOCTYPE svg PUBLIC "-//W3C//DTD SVG 1.1//EN" "http://www.w3.org/Graphics/SVG/1.1/DTD/svg11.dtd">
<svg id="Untitled-Page%201" viewBox="0 0 111 111" style="background-color:#ffffff00" version="1.1"
	xmlns="http://www.w3.org/2000/svg" xmlns:xlink="http://www.w3.org/1999/xlink" xml:space="preserve"
	x="0px" y="0px" width="111px" height="111px"
>
	<g id="Layer%201">
		<path id="fm-icon-cashout" d="M 74.668 13.869 L 70.816 13.869 L 75.752 8.936 L 79.603 8.936 L 79.603 23.73 L 78.566 23.73 C 80.417 26.059 81.867 28.709 82.822 31.593 C 89.025 29.279 93.468 23.347 93.468 16.333 C 93.465 7.312 86.152 0 77.131 0 C 68.867 0 62.106 6.165 61.024 14.13 C 66.17 14.638 70.87 16.673 74.67 19.772 L 74.668 13.869 L 74.668 13.869 L 74.668 13.869 ZM 50.344 36.498 L 55.295 36.498 L 55.295 49.177 L 61.632 49.177 L 61.632 30.161 L 56.68 30.161 L 50.344 36.498 L 50.344 36.498 ZM 37.464 39.667 C 37.464 28.07 46.866 18.667 58.464 18.667 C 70.06 18.667 79.464 28.07 79.464 39.667 C 79.464 51.264 70.06 60.667 58.464 60.667 C 46.869 60.666 37.464 51.263 37.464 39.667 L 37.464 39.667 ZM 105.861 85.271 C 102.466 87.665 70.16 106.769 65.601 109.392 C 60.255 112.472 58.867 112.814 50.747 110.242 C 45.385 108.544 37.713 106.033 32.187 103.443 C 27.263 101.131 23.744 101.062 20.001 103.443 L 13.752 107.246 L 0.484 77.809 C 0.484 77.809 11.39 72.639 18.007 70.12 C 28.713 66.041 31.943 67.954 37.892 71.674 C 40.408 73.246 48.603 79.23 48.603 79.23 C 48.603 79.23 53.701 84 64.236 84 C 70.695 84 74.798 84.693 74.798 88.666 C 74.798 93.007 66.716 93.324 66.683 93.324 L 51.465 93.324 C 44.708 93.324 35.215 89.429 35.215 89.429 C 35.215 89.429 43.251 98.074 51.465 98.074 L 66.725 98.074 C 71.134 97.984 79.464 95.84 79.464 88.666 C 79.464 79.334 70.97 79.334 60.214 79.334 C 59.374 79.334 58.611 79.198 57.861 79.039 C 58.271 78.818 58.68 78.603 59.191 78.314 C 61.109 77.232 63.683 75.681 66.605 73.869 C 74.273 69.118 78.215 68.515 82.043 73.557 C 84.707 70.85 88.064 70.108 90.935 70.108 C 94.172 70.108 96.916 72.246 96.146 75.7 C 104.461 70.786 108.564 72.762 110.389 75.135 C 112.803 78.266 111.152 81.531 105.861 85.271 L 105.861 85.271 Z" fill="#dcce91"/>
	</g>
</svg>