<?xml version="1.0" standalone="no"?>
<!-- Generator: Adobe Fireworks 10, Export SVG Extension by Aaron Beall (http://fireworks.abeall.com) . Version: 0.6.1  -->
<!DOCTYPE svg PUBLIC "-//W3C//DTD SVG 1.1//EN" "http://www.w3.org/Graphics/SVG/1.1/DTD/svg11.dtd">
<svg id="Untitled-Page%201" viewBox="0 0 441 19" style="background-color:#ffffff00" version="1.1"
	xmlns="http://www.w3.org/2000/svg" xmlns:xlink="http://www.w3.org/1999/xlink" xml:space="preserve"
	x="0px" y="0px" width="441px" height="19px"
>
	<g id="Layer%201">
		<g opacity="0.902">
			<path id="Line" opacity="0.7882" d="M 4.5 9.5 L 164.5 9.5 " stroke="#bdc1c4" stroke-width="1" fill="none"/>
			<path id="Line2" opacity="0.7882" d="M 277.5 9.5 L 437.5 9.5 " stroke="#bdc1c4" stroke-width="1" fill="none"/>
			<path d="M 187.9861 0 L 191.072 6.2527 L 197.9722 7.2554 L 192.9791 12.1223 L 194.1578 18.9946 L 187.9861 15.75 L 181.8143 18.9946 L 182.993 12.1223 L 178 7.2554 L 184.9001 6.2527 L 187.9861 0 Z" fill="#cbbc87"/>
			<path d="M 219.9861 0 L 223.072 6.2527 L 229.9722 7.2554 L 224.9791 12.1223 L 226.1578 18.9946 L 219.9861 15.75 L 213.8143 18.9946 L 214.993 12.1223 L 210 7.2554 L 216.9001 6.2527 L 219.9861 0 Z" fill="#cbbc87"/>
			<path d="M 252.9861 0 L 256.072 6.2527 L 262.9722 7.2554 L 257.9791 12.1223 L 259.1578 18.9946 L 252.9861 15.75 L 246.8143 18.9946 L 247.993 12.1223 L 243 7.2554 L 249.9001 6.2527 L 252.9861 0 Z" fill="#cbbc87"/>
		</g>
	</g>
</svg>