<?xml version="1.0" standalone="no"?>
<!-- Generator: Adobe Fireworks 10, Export SVG Extension by Aaron Beall (http://fireworks.abeall.com) . Version: 0.6.1  -->
<!DOCTYPE svg PUBLIC "-//W3C//DTD SVG 1.1//EN" "http://www.w3.org/Graphics/SVG/1.1/DTD/svg11.dtd">
<svg id="Untitled-Page%201" viewBox="0 0 1033 19" style="background-color:#ffffff00" version="1.1"
	xmlns="http://www.w3.org/2000/svg" xmlns:xlink="http://www.w3.org/1999/xlink" xml:space="preserve"
	x="0px" y="0px" width="1033px" height="19px"
>
	<g id="Layer%201">
		<g id="fm-quote-separator">
			<path id="Line" opacity="0.7882" d="M 0.5 9.5 L 460.5 9.5 " stroke="#bdc1c4" stroke-width="1" fill="none"/>
			<path id="Line2" opacity="0.7882" d="M 573.5 9.5 L 1033.5 9.5 " stroke="#bdc1c4" stroke-width="1" fill="none"/>
			<path opacity="0.902" d="M 483.9861 0 L 487.072 6.2527 L 493.9722 7.2554 L 488.9791 12.1223 L 490.1578 18.9946 L 483.9861 15.75 L 477.8143 18.9946 L 478.993 12.1223 L 474 7.2554 L 480.9001 6.2527 L 483.9861 0 L 483.9861 0 Z" fill="#cbbc87"/>
			<path opacity="0.902" d="M 515.9861 0 L 519.072 6.2527 L 525.9722 7.2554 L 520.9791 12.1223 L 522.1578 18.9946 L 515.9861 15.75 L 509.8143 18.9946 L 510.993 12.1223 L 506 7.2554 L 512.9001 6.2527 L 515.9861 0 L 515.9861 0 Z" fill="#cbbc87"/>
			<path opacity="0.902" d="M 548.9861 0 L 552.072 6.2527 L 558.9722 7.2554 L 553.9791 12.1223 L 555.1578 18.9946 L 548.9861 15.75 L 542.8143 18.9946 L 543.993 12.1223 L 539 7.2554 L 545.9001 6.2527 L 548.9861 0 L 548.9861 0 Z" fill="#cbbc87"/>
		</g>
	</g>
</svg>